<svg xmlns="http://www.w3.org/2000/svg" xmlns:xlink="http://www.w3.org/1999/xlink" width="0" height="0" style="position:absolute">
	
		<symbol id="icon-arrow-next" viewBox="0 0 24 24">
			<path d="M9.71 18.293a1 1 0 0 0 1.415 0l4.887-4.892a2 2 0 0 0 0-2.828l-4.89-4.89a1 1 0 0 0-1.415 1.414l4.186 4.185a1 1 0 0 1 0 1.415L9.71 16.879a1 1 0 0 0 0 1.414z" fill="#0F0F0F"></path>
		</symbol>
	
		<symbol id="icon-arrow-prev" viewBox="0 0 24 24">
			<path d="M14.29 5.707a1 1 0 0 0-1.415 0L7.988 10.6a2 2 0 0 0 0 2.828l4.89 4.89a1 1 0 0 0 1.415-1.414l-4.186-4.185a1 1 0 0 1 0-1.415l4.182-4.182a1 1 0 0 0 0-1.414z" fill="#0F0F0F"></path>
		</symbol>
	
		<symbol id="icon-cart-modal" viewBox="0 0 512 512">
			<path class="st0" d="M483.157 164.434H350.466l-60.035 58.975c-8.135 7.987-18.892 12.384-30.29 12.384-11.692 0-22.647-4.585-30.839-12.934-15.834-16.122-16.41-41.596-1.947-58.425H28.843C12.91 164.434 0 177.344 0 193.276v9.614c0 15.703 12.548 28.457 28.178 28.81l31.094 190.434c3.771 23.066 23.69 40.002 47.059 40.002h299.28c23.37 0 43.296-16.936 47.069-40.002L483.774 231.7C499.42 231.371 512 218.61 512 202.89v-9.614c0-15.932-12.909-28.842-28.843-28.842zM319.972 351.697H191.98v-30.051h127.992v30.051z"></path><path class="st0" d="M277.62 210.36L397.493 92.599c9.828-9.647 9.968-25.448.312-35.268-9.656-9.828-25.449-9.976-35.277-.32L242.655 174.772c-9.828 9.664-9.968 25.448-.312 35.277 9.655 9.827 25.449 9.975 35.277.311z"></path>
		</symbol>
	
		<symbol id="icon-cart-toggle" viewBox="0 0 20 20">
			<title>shopping_cart [#1135]</title><path d="M16.846 18H3.153a1 1 0 0 1-.99-1.141l1.143-8A1 1 0 0 1 4.296 8H5v2a1 1 0 0 0 2 0V8h6v2a1 1 0 0 0 2 0V8h.704a1 1 0 0 1 .99.859l1.143 8a1 1 0 0 1-.99 1.141zM7 5c0-1.654 1.346-3 3-3 1.655 0 3 1 3 3v1H7V5zm12.98 12.717l-1.429-10A2 2 0 0 0 16.57 6H15V5c0-3-2.244-5-5-5-2.757 0-5 2.243-5 5v1H3.733c-.995 0-2.145.732-2.286 1.717l-1.428 10A2 2 0 0 0 2 20h16a2 2 0 0 0 1.98-2.283z" fill="#000" fill-rule="evenodd"></path>
		</symbol>
	
		<symbol id="icon-search" viewBox="0 0 24 24">
			<path d="M15.796 15.811L21 21m-3-10.5a7.5 7.5 0 1 1-15 0 7.5 7.5 0 0 1 15 0z"></path>
		</symbol>
	
</svg>
